<?xml version="1.0" encoding="UTF-8" standalone="no"?>
<!-- Created with Inkscape (http://www.inkscape.org/) -->

<svg
   xmlns:dc="http://purl.org/dc/elements/1.1/"
   xmlns:cc="http://creativecommons.org/ns#"
   xmlns:rdf="http://www.w3.org/1999/02/22-rdf-syntax-ns#"
   xmlns:svg="http://www.w3.org/2000/svg"
   xmlns="http://www.w3.org/2000/svg"
   xmlns:sodipodi="http://sodipodi.sourceforge.net/DTD/sodipodi-0.dtd"
   xmlns:inkscape="http://www.inkscape.org/namespaces/inkscape"
   version="1.1"
   width="474.80655"
   height="130.67117"
   id="svg2"
   inkscape:version="0.91 r13725"
   sodipodi:docname="header.svg">
  <sodipodi:namedview
     pagecolor="#ffffff"
     bordercolor="#666666"
     borderopacity="1"
     objecttolerance="10"
     gridtolerance="10"
     guidetolerance="10"
     inkscape:pageopacity="0"
     inkscape:pageshadow="2"
     inkscape:window-width="1366"
     inkscape:window-height="674"
     id="namedview7"
     showgrid="false"
     inkscape:zoom="1.28"
     inkscape:cx="-37.499515"
     inkscape:cy="77.760659"
     inkscape:window-x="0"
     inkscape:window-y="26"
     inkscape:window-maximized="1"
     inkscape:current-layer="svg2"
     showborder="true"
     fit-margin-top="0"
     fit-margin-left="0"
     fit-margin-right="0"
     fit-margin-bottom="0" />
  <defs
     id="defs4" />
  <metadata
     id="metadata7">
    <rdf:RDF>
      <cc:Work
         rdf:about="">
        <dc:format>image/svg+xml</dc:format>
        <dc:type
           rdf:resource="http://purl.org/dc/dcmitype/StillImage" />
        <dc:title />
      </cc:Work>
    </rdf:RDF>
  </metadata>
  <path
     style="fill:#000000"
     d="m 418.16778,128.69351 c -2.46803,-1.0941 -5.16803,-2.6006 -6,-3.348 -2.60195,-2.3372 -14.57746,-8.3273 -19.06287,-9.5351 -4.47708,-1.2056 -13.21198,-9.08927 -17.05716,-15.395 -5.20183,-8.530503 1.27197,-21.128163 13.80234,-26.858583 6.69085,-3.05988 3.19181,-6.15499 -4.76931,-4.21874 -21.00599,5.10893 -22.83203,5.78296 -23.46417,8.66108 -0.89339,4.06757 -4.25631,7.82474 -7.00367,7.82474 -1.31836,0 -3.99938,0.9 -5.95784,2 -1.95846,1.1 -5.23762,2 -7.28702,2 -2.0494,0 -5.29821,0.47043 -7.21958,1.04541 -5.33561,1.5967 -56.85156,2.70924 -90.4934,1.95431 -6.6,-0.14811 -23.475,0.21201 -37.5,0.80027 -14.025,0.58825 -42.375,1.33601 -63,1.66169 -34.29845,0.54158 -41.53943,1.02631 -55,3.68187 -2.475,0.48828 -10.125,1.524273 -17,2.302203 -6.875,0.77793 -14.075,1.69789 -16,2.04436 -6.86566,1.23571 -17.54886,3.78082 -20.5,4.88381 -1.65,0.61669 -5.025,1.14532 -7.5,1.17473 -2.475,0.0294 -9.60129,0.6292 -15.8362,1.33285 -13.5981501,1.5347 -12.7322701,2.2164 -8.7572301,-6.89473 1.79649,-4.117723 4.12182,-10.524273 5.1674,-14.236773 1.04558,-3.7125 2.24417,-6.75 2.6635401,-6.75 0.41937,0 0.76249,-0.75667 0.76249,-1.68148 0,-2.01714 5.64821,-16.82433 10.80211,-28.31852 1.10977,-2.475 2.70525,-8.55 3.54552,-13.5 1.15948,-6.83047 2.8686,-11.81426 7.09006,-20.67455 3.05927,-6.421 5.56231,-12.0486495 5.56231,-12.5058895 0,-2.78994 6.27444,-3.57455 14.60501,-1.82633 4.61057,0.96756 9.70942,1.49388 11.33077,1.16961 1.62136,-0.32427 5.33658,0.12405 8.25607,0.99625 5.72782,1.71122 26.43502,1.42503 41.84748,-0.57835 40.09968,-5.21233003 57.11748,-6.53896003 72.46067,-5.64868003 6.6,0.38296 23.925,1.08373003 38.5,1.55726003 14.575,0.47353 31.9,1.59193 38.5,2.48534 6.88752,0.93233 22.22496,1.82135 36,2.08672 40.7448,0.78492 53.9298,1.25435 55.80076,1.98669 2.93618,1.1493 8.68075,9.4841295 9.32847,13.5347295 0.68953,4.31206 0.9526,4.42358 12.87077,5.45619 4.4,0.38123 8.675,1.27786 9.5,1.99251 0.825,0.71465 3.14402,1.24947 5.15337,1.18848 3.28291,-0.0996 11.57661,2.72444 12.84663,4.3744 0.74821,0.97204 9.6935,4.90342 11.19514,4.92017 0.71767,0.008 3.28386,0.7037 5.70263,1.54599 3.17787,1.10663 6.22919,1.35112 11,0.88139 11.24007,-1.10669 39.1233,16.82519 41.61798,26.76478 0.79309,3.15995 -2.06771,16.64073 -3.97975,18.75351 -0.83106,0.91831 -2.03546,3.21543 -2.67646,5.10471 -0.64099,1.88929 -1.99662,4.62954 -3.01249,6.08944 -1.01588,1.459903 -1.84705,2.932053 -1.84705,3.271443 0,0.33939 -1.21473,2.51992 -2.69939,4.84563 -12.42981,19.47106 -28.5328,27.69556 -42.28793,21.59816 z m 22.72043,-7.5764 c 12.06425,-6.1089 21.48913,-18.35101 25.24667,-32.793203 0.71549,-2.75 1.95251,-5.52869 2.74892,-6.17486 4.365,-3.54153 3.49774,-13.75915 -1.6026,-18.88102 -7.88938,-7.9227 -28.92377,-18.03459 -34.99081,-16.82118 -1.55033,0.31007 -5.26932,-0.36147 -8.67455,-1.56636 -3.27841,-1.16002 -9.05935,-2.55435 -12.84655,-3.0985 -5.37267,-0.77197 -7.63273,-1.64519 -10.2848,-3.97373 -8.65087,-7.59557 -12.08621,2.16201 -5.59667,15.89655 5.41309,11.45633 4.07388,16.07379 -6.64848,22.92321 -7.77816,4.96868 -7.85652,5.08543 -8.59019,12.79948 -1.33859,14.074163 3.56269,19.330243 25.50595,27.352313 8.525,3.1166 16.85,6.4307 18.5,7.3647 4.05136,2.2933 8.14624,1.5739 17.23311,-3.0274 z M 15.32636,103.16892 c 2.52443,-2.28457 2.28988,-3.813873 -0.80093,-5.222143 -3.00694,-1.37005 -6.3703301,0.71481 -6.3703301,3.948783 0,3.06772 4.3374801,3.8379 7.1712601,1.27336 z m 24.82874,-1.87011 c 7.425,-0.82822 17.65766,-2.173893 22.73923,-2.990383 5.08158,-0.81648 11.05854,-1.48452 13.28212,-1.48452 2.22359,0 5.56673,-0.6367 7.42921,-1.41489 1.86247,-0.7782 3.64608,-1.15514 3.96356,-0.83766 0.57341,0.57341 13.76562,-0.76165 29.08588,-2.94353 4.4,-0.62663 9.35,-1.27543 11,-1.44177 5.24337,-0.5286 82.23311,-1.56893 132.5,-1.79042 32.98394,-0.14533 50.73943,-0.60689 55.5,-1.44273 15.39389,-2.7028 18.22571,-3.129 20.78996,-3.129 8.71435,0 12.39038,-4.45666 9.63817,-11.6849 -4.33955,-11.39713 -3.74924,-37.66462 1.19003,-52.95333 3.23212,-10.0044995 5.33439,-9.3362495 -29.33157,-9.3235595 -16.65763,0.006 -36.58659,-0.42938 -44.28659,-0.96772 -71.7749,-5.01809 -105.81472,-5.04202 -148.5,-0.10437 -22.56107,2.6097795 -45.09378,4.1841895 -51.5,3.5984395 -18.49683,-1.69124 -25.72736,0.40913 -24.07481,6.99341 0.31426,1.25208 0.11023,2.43022 -0.45338,2.61809 -1.0207,0.34024 -4.43781,12.26314 -5.96816,20.82394 -1.80905,10.11985 -11.37641,39.31039 -14.17013,43.2338 -1.08187,1.51935 -2.12893,4.53109 -2.3268,6.69277 -0.19787,2.16167 -0.84282,4.83293 -1.43324,5.93613 -2.52918,4.725823 -3.11037,4.624113 14.92652,2.612203 z M 22.06562,93.573907 c 1.08204,-2.87754 -0.6659,-3.97491 -5.66944,-3.55934 -4.91372,0.40812 -5.50551,2.98445 -1.02286,4.45299 5.00982,1.64124 5.77766,1.5387 6.6923,-0.89365 z m 3.43675,-9.15725 c 4.1497,-6.33325 3.46926,-7.72268 -4.46959,-9.12677 -3.56239,-0.63006 -3.6342,-0.57716 -4.33949,3.19668 -0.39444,2.11054 -1.21046,4.43414 -1.81337,5.16356 -1.48192,1.79284 0.28056,2.80694 5.21438,3.00027 3.04454,0.11929 4.17122,-0.34607 5.40807,-2.23374 z m 4.46188,-14.28634 c 0.28545,-2.94873 0.0368,-3.24468 -3.24247,-3.85988 -6.67355,-1.25196 -9.35125,2.95861 -3.81668,6.00157 4.27439,2.35011 6.69543,1.61558 7.05915,-2.14169 z m 324.71968,-11.32111 c 0.0358,-14.2728 1.27594,-25.79421 3.08917,-28.70012 1.70552,-2.73329 1.72997,-4.13718 0.132,-7.57801 -0.94734,-2.03987 -4.7203,-3.98924 -4.75579,-2.45717 -0.003,0.1375 -0.42512,2.80997 -0.93762,5.93883 -1.9956,12.18319 -3.02236,41.43951 -1.53859,43.8403 2.56817,4.15538 3.98245,0.26113 4.01083,-11.04383 z m 9.79002,8.2647 c 0.24029,-0.4125 -0.27144,-4.35 -1.13717,-8.75 -1.75146,-8.9016 -2.00464,-17.53871 -0.72849,-24.8522 1.23405,-7.0722 -2.2071,-6.37384 -4.20493,0.85337 -4.16944,15.08303 0.78669,41.81967 6.07059,32.74883 z m 6.86698,-6.78613 c -1.62086,-30.76915 -1.63857,-30.93225 -3.39505,-31.26805 -4.80291,-0.9182 -6.27045,18.27009 -2.3177,30.30418 0.90327,2.75 1.83999,5.59576 2.08159,6.32391 1.38645,4.17849 3.93543,0.41589 3.63116,-5.36004 z m 6.81098,4.28613 c -0.002,-0.6875 -0.70611,-5.26855 -1.56521,-10.18011 -0.85911,-4.91155 -1.42017,-12.09755 -1.24681,-15.96888 0.26915,-6.01026 0.0636,-7.08978 -1.40639,-7.38775 -2.02111,-0.40968 -1.80914,21.15858 0.29521,30.03674 1.0154,4.28394 3.93185,6.88579 3.9232,3.5 z m 7.00319,-3.70078 c 0,-2.17293 -0.44839,-6.11043 -0.99643,-8.75 -0.54803,-2.63957 -1.18779,-8.17422 -1.42167,-12.29922 -0.23389,-4.125 -0.4605,-7.6125 -0.50358,-7.75 -0.0431,-0.1375 -0.9425,-0.25 -1.99873,-0.25 -3.85082,0 -3.84258,14.54475 0.0166,29.25 1.44322,5.49949 4.90381,5.3578 4.90381,-0.20078 z m -352.60699,1.36899 c 2.09037,-5.44742 -1.48561,-10.74786 -6.06546,-8.99041 -2.12754,0.81642 -1.76442,9.31139 0.42245,9.88287 3.47731,0.90872 5.0471,0.66045 5.64301,-0.89246 z m 3.9767,-12.66821 c 1.32866,-4.95785 0.86443,-5.75 -3.36971,-5.75 -4.3707,0 -4.81285,0.851 -2.75,5.29283 1.58029,3.40276 5.25673,3.6774 6.11971,0.45717 z m 1.44984,-11 c -0.44395,-3.12593 -6.81955,-3.96425 -6.81955,-0.89669 0,2.15689 1.23956,2.9459 4.81955,3.06774 1.85086,0.063 2.25498,-0.37568 2,-2.17105 z m 4.18045,-12.25 c 0,-2.09996 -0.4706,-2.5 -2.94098,-2.5 -3.21285,0 -4.54682,1.28643 -3.67902,3.54789 1.04419,2.72111 6.62,1.83851 6.62,-1.04789 z m 1.81955,-10.73978 c -0.34578,-2.42361 -3.39723,-3.58254 -5.05855,-1.92122 -1.67944,1.67944 -0.0232,4.161 2.77717,4.161 2.1222,0 2.54211,-0.41226 2.28138,-2.23978 z"
     id="path4145"
     inkscape:connector-curvature="0" />
  <g
     style="font-style:normal;font-weight:normal;font-size:40px;line-height:125%;font-family:Sans;letter-spacing:0px;word-spacing:0px;fill:#000000;fill-opacity:1;stroke:none;stroke-width:1px;stroke-linecap:butt;stroke-linejoin:miter;stroke-opacity:1"
     id="text4166">
    <path
       d="m 126.69273,37.567462 c -0.25747,4.820128 4.59271,8.456553 11.84319,13.452102 3.90841,2.746218 7.95899,4.620775 7.94046,9.443659 -0.46098,5.495602 -8.86735,4.283474 -12.97376,2.014931 -3.94999,-2.351817 -6.96329,-8.902924 -8.05002,-7.345943 -2.37614,3.40431 -1.24096,14.119367 10.06429,16.601668 8.15872,1.791414 19.86785,-1.993818 18.94186,-11.617214 -0.91355,-9.494371 -7.33372,-12.958904 -11.6541,-15.678747 -3.64973,-1.946828 -7.32165,-5.464626 -6.98574,-7.23919 0.57304,-3.027199 3.40952,-4.922867 7.94419,-4.112975 1.7275,0.30853 5.29865,1.775122 7.53563,2.930053 1.60895,0.934849 4.08974,0.739689 5.39737,-0.861339 1.85947,-3.337016 -0.92307,-6.746001 -10.14906,-8.717511 -11.38537,-2.357169 -19.43966,3.367418 -19.85431,11.130506 z"
       id="path4136"
       inkscape:connector-curvature="0"
       sodipodi:nodetypes="scccssscsscccs" />
    <path
       d="m 182.58071,43.616261 c -3.25989,-0.808745 -8.42057,-1.355526 -12.55829,0.559882 -2.52039,1.386385 -4.76959,4.15206 -5.81451,7.138331 -2.07014,5.916193 -0.35184,15.320328 6.97985,17.418059 3.22045,0.921431 13.25007,-1.340271 14.45251,-4.77737 0.42711,-1.220879 0.54301,-2.347072 -0.0144,-3.457155 -1.82914,-3.642758 -0.37679,0.825352 -5.09857,1.390635 -3.73752,0.68807 -4.10073,0.608031 -6.7045,-0.136956 -1.78153,-0.509728 -3.60897,-2.396276 -3.99455,-5.171986 0.14543,0.661471 0.3219,0.587991 0.45895,0.627202 0.41111,0.117626 0.73401,0.271999 0.93957,0.330814 8.63454,2.036601 16.68179,-0.495816 18.29847,-5.116081 1.65611,-4.732955 -1.81485,-7.523645 -6.9445,-8.805375 z m -11.14616,8.588158 c -0.65612,-0.06375 -0.91049,-0.198525 -0.59601,-0.666412 2.21171,-3.520232 6.54271,-4.264595 9.69465,-3.362767 1.09633,0.31368 2.02556,0.889479 2.62155,1.555888 0.31255,0.399355 0.41953,0.739892 0.32096,1.021616 -0.65062,1.859376 -6.03949,2.610991 -10.54308,1.694345 z"
       id="path4138"
       inkscape:connector-curvature="0"
       sodipodi:nodetypes="ccsssscscscscccsccccc" />
    <path
       d="m 200.63891,44.284075 c -0.27376,1.728455 -0.62761,3.515097 -0.90137,5.243552 l -1.98202,12.514011 c -0.74463,4.701396 -0.74184,6.473653 1.95455,6.900719 3.2495,0.514669 3.56706,-1.490338 4.69087,-7.690874 l 0.17521,-1.106211 c 0.50715,-2.754577 1.12381,-6.200536 2.56949,-8.168613 1.71879,-2.350055 4.8686,-2.819402 8.74034,-2.206179 1.93587,0.306612 2.19852,2.946509 1.62502,7.462392 -0.88763,6.946669 -2.9535,11.811889 4.23687,12.950732 4.44277,0.71877 7.19556,-2.988946 5.93418,-4.677776 -2.31509,0.351876 -4.52074,0.829751 -5.11161,-0.109181 -0.94058,-1.558108 0.34919,-2.487793 0.98431,-6.497808 1.09504,-6.913818 2.40909,-15.2104 -6.64801,-16.644904 -3.59518,-0.569422 -7.24233,0.979104 -9.53548,2.033355 l -0.68795,0.316276 c 0.33195,-1.648366 0.79874,-3.700611 -1.52254,-4.706119 l 0.0691,0.01095 c -0.91318,-0.498996 -3.71564,0.191099 -4.13454,1.046094 -0.20398,0.392928 -0.25874,0.738619 -0.10607,1.117161 -0.15674,0.542155 -0.18616,1.175349 -0.26281,1.659317 l -0.0876,0.553105 z"
       id="path4140"
       inkscape:connector-curvature="0"
       sodipodi:nodetypes="cssscccsccccssscccccscc" />
    <path
       d="m 239.97,44.330978 -2.0169,18.474765 c -0.0742,0.67922 -0.1483,1.358439 -0.30917,2.100852 -0.3177,2.473319 -0.60216,6.611484 2.71585,6.765492 5.56398,-0.02189 4.78745,-2.426665 5.39638,-7.084736 0.23913,-1.829223 1.20886,-15.60087 1.89169,-19.662005 1.19701,0.003 0.8872,-0.08385 1.9256,-0.09031 5.42247,0.04975 6.29658,1.437087 6.58578,-1.211869 0.27434,-2.51311 0.81516,-4.431383 -3.62596,-4.696099 l -4.12392,-0.245806 c 0.002,-0.751873 0.0297,-0.27169 0.11122,-1.018828 0.11865,-1.086751 0.21505,-1.969736 0.41299,-3.05176 0.42781,-3.187604 1.45463,-8.937333 6.76813,-8.62062 1.3482,0.08036 3.51446,-0.353267 5.13996,1.02778 2.42976,2.19352 3.3755,3.377886 3.27668,-0.711245 -0.0974,-4.028885 -5.16297,-6.721345 -9.28774,-6.804069 -2.81505,-0.05646 -10.49065,0.476248 -12.582,10.127632 -0.29208,1.213142 -0.63569,5.501267 -0.73208,6.384253 -0.30175,2.03293 -0.44781,2.639501 -2.9856,2.488235 -3.01364,-0.179627 -5.53609,-3.082192 -5.39016,0.624074 0.13173,3.345356 1.51575,4.887559 5.87757,5.147548 z"
       id="path4142"
       inkscape:connector-curvature="0"
       sodipodi:nodetypes="ccccccccscccscssccsssc" />
  </g>
</svg>
