<?xml version="1.0" encoding="UTF-8" standalone="no"?>
<!-- Created with Inkscape (http://www.inkscape.org/) -->

<svg
   xmlns:dc="http://purl.org/dc/elements/1.1/"
   xmlns:cc="http://creativecommons.org/ns#"
   xmlns:rdf="http://www.w3.org/1999/02/22-rdf-syntax-ns#"
   xmlns:svg="http://www.w3.org/2000/svg"
   xmlns="http://www.w3.org/2000/svg"
   xmlns:sodipodi="http://sodipodi.sourceforge.net/DTD/sodipodi-0.dtd"
   xmlns:inkscape="http://www.inkscape.org/namespaces/inkscape"
   width="76.199997mm"
   height="76.200005mm"
   viewBox="0 0 269.99998 270"
   id="svg4170"
   version="1.1"
   inkscape:version="0.91 r13725"
   sodipodi:docname="icon.svg"
   inkscape:export-filename="/home/lazka/rect4754.png"
   inkscape:export-xdpi="90"
   inkscape:export-ydpi="90">
  <defs
     id="defs4172" />
  <sodipodi:namedview
     id="base"
     pagecolor="#ffffff"
     bordercolor="#666666"
     borderopacity="1.0"
     inkscape:pageopacity="0.0"
     inkscape:pageshadow="2"
     inkscape:zoom="0.7"
     inkscape:cx="-110.17752"
     inkscape:cy="126.55455"
     inkscape:document-units="px"
     inkscape:current-layer="g4792"
     showgrid="false"
     inkscape:window-width="1366"
     inkscape:window-height="674"
     inkscape:window-x="0"
     inkscape:window-y="26"
     inkscape:window-maximized="1"
     fit-margin-top="0"
     fit-margin-left="0"
     fit-margin-right="0"
     fit-margin-bottom="0"
     showborder="true"
     borderlayer="false"
     inkscape:showpageshadow="false" />
  <metadata
     id="metadata4175">
    <rdf:RDF>
      <cc:Work
         rdf:about="">
        <dc:format>image/svg+xml</dc:format>
        <dc:type
           rdf:resource="http://purl.org/dc/dcmitype/StillImage" />
        <dc:title />
      </cc:Work>
    </rdf:RDF>
  </metadata>
  <g
     inkscape:label="Layer 1"
     inkscape:groupmode="layer"
     id="layer1"
     transform="translate(-130.37755,-101.37834)">
    <g
       id="g4792"
       transform="translate(-25.714286,5.7142884)">
      <path
         style="fill:#000000"
         d="m 280.16682,362.25506 c -2.50927,-4.85992 -2.23356,-8.76343 1.07449,-15.21303 5.82251,-11.35195 6.62639,-12.47082 12.59989,-17.53697 3.42484,-2.90461 7.70483,-7.93354 10.21291,-12 2.37456,-3.85 5.78338,-8.66065 7.57514,-10.69034 4.76743,-5.40048 5.90536,-16.62306 1.84356,-18.18172 -1.68525,-0.64669 -2.01781,-3.62794 -0.40471,-3.62794 0.58746,0 0.12129,-1.32967 -1.03592,-2.95483 -1.21551,-1.70702 -2.68964,-2.7301 -3.49078,-2.42268 -0.76271,0.29268 -2.20905,-0.20055 -3.21407,-1.09608 -10.20297,-9.09133 -17.36029,-13.17246 -24.72657,-14.09918 -2.25541,-0.28375 -6.35075,-0.84675 -9.10075,-1.25113 -3.98246,-0.5856 -5.71228,-0.35242 -8.5,1.14582 -5.59473,3.00683 -6.76971,4.5021 -9.02618,11.48663 -1.17136,3.62577 -2.7338,7.76041 -3.47208,9.18809 -0.73828,1.42767 -1.64623,6.62498 -2.01766,11.54957 -1.44122,19.108 -10.7437,38.20602 -16.9249,34.74685 -1.24295,-0.69559 -0.19639,-2.19905 5.38894,-7.74158 6.93146,-6.87834 6.93146,-6.87834 6.348,-15.14598 -0.6927,-9.81562 0.77874,-18.39776 4.50863,-26.29655 3.1355,-6.64003 3.43574,-14.56678 0.70936,-18.72776 -2.9626,-4.52151 -3.60678,-8.30131 -1.95811,-11.48949 0.81649,-1.57891 1.44842,-3.21296 1.4043,-3.63122 -0.17806,-1.68779 2.42503,-9.85844 3.58747,-11.26048 1.35883,-1.63891 4.45223,-10.26171 4.45223,-12.41052 0,-1.41838 3.12955,-8.82812 8.27373,-19.58948 4.13256,-8.6451 3.66961,-26 -0.69356,-26 -1.80187,0 -3.68541,-7.47376 -4.66239,-18.5 -1.36627,-15.41987 -4.18525,-27.85082 -7.2172,-31.82591 -2.69882,-3.53834 -2.69882,-3.53834 0.14493,-9.85622 1.56407,-3.47483 3.62526,-8.56787 4.58042,-11.31787 3.63937,-10.478046 3.65311,-10.499996 6.57255,-10.499996 3.33017,0 3.22668,7.768566 -0.15179,11.394936 -1.01568,1.0902 -1.84669,2.4244 -1.84669,2.96488 0,0.54048 -0.7443,1.80514 -1.65399,2.81034 -0.9097,1.00521 -1.75062,3.41906 -1.86871,5.36411 -0.11809,1.94506 -0.44985,3.77161 -0.73724,4.059 -3.29722,3.29722 3.33285,5.53154 17.75994,5.98508 4.4,0.13832 9.35,0.67743 11,1.19802 7.81842,2.46677 27.0795,9.88748 41,15.79605 1.65,0.70034 4.35,1.5951 6,1.98835 1.65,0.39325 3.45,1.03172 4,1.41883 0.55,0.3871 2.8543,1.42312 5.12067,2.30227 7.79147,3.02238 17.88439,7.99951 21.1727,10.44091 1.81135,1.34484 7.60324,4.48677 12.87087,6.98207 5.26764,2.4953 10.31805,5.27001 11.22314,6.16603 0.9051,0.89602 2.9054,2.44645 4.44512,3.44542 5.24339,3.40188 6.03456,4.13436 18.87696,17.47672 8.45918,8.78849 8.13338,8.76919 11.93368,0.70698 2.27519,-4.82673 2.36846,-4.89808 2.69173,-2.0588 1.03614,9.10042 -2.76058,14.5588 -10.12675,14.5588 -3.47273,0 -13.02084,5.48698 -22.20812,12.76227 -3.22274,2.55205 -7.82539,5.39676 -13.99443,8.64939 -7.90671,4.16882 -16.82634,12.97393 -21.65857,21.38049 -1.67311,2.91069 -4.39396,6.28569 -6.04633,7.5 -1.65238,1.21432 -4.04359,4.23285 -5.31381,6.70785 -1.27022,2.475 -3.2494,5.49368 -4.39818,6.70819 -1.14877,1.2145 -2.08868,2.50996 -2.08868,2.8788 0,0.61577 -4.7334,6.40016 -8.75535,10.69936 -0.91914,0.98249 -3.5942,2.74677 -5.9446,3.92061 -3.54526,1.77059 -4.37588,2.74417 -4.87464,5.71365 -0.78281,4.66066 -2.59569,8.34012 -7.4297,15.07939 -2.1698,3.025 -3.95648,6.08485 -3.9704,6.79966 -0.0696,3.5717 -4.6281,9.48996 -8.62706,11.20034 -10.01953,4.28541 -19.39993,23.34003 -15.87634,32.25 0.48166,1.21795 0.2142,1.75 -0.87974,1.75 -0.86449,0 -1.9784,-0.7875 -2.47536,-1.75 z m 49.53123,-83.9055 c 1.08002,-2.81449 -20.46826,-17.18624 -25.94804,-17.30619 -0.9625,-0.0211 -1.75,-0.48831 -1.75,-1.03831 0,-0.55 -0.69293,-1 -1.53984,-1 -0.84691,0 -3.32191,-0.90915 -5.5,-2.02032 -2.17809,-1.11118 -3.96016,-1.77581 -3.96016,-1.47695 0,0.29886 -1.0125,-0.11235 -2.25,-0.9138 -1.2375,-0.80145 -4.95,-2.45371 -8.25,-3.67169 -3.3,-1.21799 -6.225,-2.49875 -6.5,-2.84615 -0.53437,-0.67505 -12.91955,-5.54192 -16.87485,-6.63113 -2.62625,-0.72322 -4.08475,0.74102 -4.10984,4.12603 -0.0164,2.20579 3.92217,4.16938 16.98469,8.46792 3.575,1.17644 8.075,2.95787 10,3.95872 1.925,1.00086 6.5375,3.08709 10.25,4.63608 3.7125,1.54898 6.75,3.1662 6.75,3.59381 0,0.42762 0.52401,0.77748 1.16446,0.77748 1.81283,0 15.98923,6.91571 19.33554,9.43251 5.23145,3.93463 11.07066,4.8499 12.19804,1.91199 z m 5.72607,-6.00732 c 1.17697,-3.06714 -11.96717,-13.69091 -21.42411,-17.31607 -1.925,-0.73791 -3.9275,-1.71954 -4.45,-2.18139 -0.5225,-0.46184 -1.56075,-0.83972 -2.30723,-0.83972 -0.74648,0 -5.49398,-1.96731 -10.55,-4.37179 -12.49017,-5.93993 -17.73305,-8.25355 -20.69277,-9.13145 -1.375,-0.40784 -2.98033,-1.12337 -3.5674,-1.59005 -2.04879,-1.62865 -13.90403,-4.83528 -14.74976,-3.98955 -2.89463,2.89463 6.39934,10.05377 13.0835,10.07821 0.69648,0.003 5.56316,2.01255 10.81484,4.46667 5.25168,2.45412 13.00683,5.63208 17.23366,7.06213 7.96733,2.69556 11.14938,4.12961 17.32507,7.80788 2.00195,1.19237 6.27695,3.71211 9.5,5.59942 3.22305,1.8873 6.21995,4.0248 6.65978,4.75 1.08931,1.79606 2.35668,1.65641 3.12442,-0.34429 z m 6.74715,-6.99217 c 2.31702,-2.09687 2.35762,-5.21467 0.0787,-6.04677 -0.9625,-0.35145 -2.85129,-1.71474 -4.1973,-3.02955 -2.29596,-2.24277 -12.00063,-7.26869 -14.03524,-7.26869 -2.1824,0 -5.886,-2.38944 -6.32893,-4.08322 -0.27589,-1.05501 -3.40376,-3.26996 -7.33476,-5.19398 -3.76955,-1.84501 -8.20373,-4.11004 -9.85373,-5.03341 -7.1698,-4.01236 -23.29172,-10.8211 -26.5,-11.19168 -1.925,-0.22236 -5.36513,-0.70321 -7.64473,-1.06855 -3.67936,-0.58968 -7.87721,4.20313 -5.20043,5.93749 0.18984,0.123 3.49516,1.28646 7.34516,2.58546 7.57137,2.5546 11.05114,4.02565 25.29911,10.69504 5.11451,2.39407 9.57109,4.35285 9.90351,4.35285 0.57469,0 4.1043,1.59477 17.85996,8.0696 3.33442,1.56952 7.19472,3.9029 8.57845,5.1853 8.10303,7.50963 9.61558,8.27534 12.03023,6.09011 z m 7.21841,-12.69262 c -1.65743,-5.22212 -6.64265,-8.59972 -18.70661,-12.67417 -7.18494,-2.42663 -14.09424,-5.5411 -17.65107,-7.9565 -9.67944,-6.57318 -18.44105,-10.34293 -39.85686,-17.1487 -1.82867,-0.58114 -3.57177,-0.80972 -3.87354,-0.50795 -1.46774,1.46774 1.09923,3.48648 6.85073,5.38759 6.63873,2.19438 25.42348,10.98839 34.84768,16.31381 11.89279,6.72037 23.14245,12.08239 26.48833,12.62535 2.55981,0.4154 3.51167,1.07651 3.51167,2.43902 0,1.02804 0.43844,1.86916 0.97432,1.86916 0.53588,0 1.71893,1.43991 2.629,3.1998 1.96218,3.79445 6.13499,0.70177 4.78635,-3.54741 z m 6.72548,-6.90239 c 0.51108,-5.54773 -0.98332,-6.8486 -16.84705,-14.66532 -6.47246,-3.18925 -13.7931,-7.14335 -16.2681,-8.78689 -4.2618,-2.83007 -21.03401,-9.29779 -24.11122,-9.29779 -0.7882,0 -3.06877,-1.34826 -5.06793,-2.99614 -6.31944,-5.20902 -25.53226,-6.93643 -24.62277,-2.21382 0.39623,2.05743 11.83208,5.77919 12.82436,4.17365 0.69993,-1.13251 5.09526,0.31437 7.97756,2.6261 2.74123,2.19859 16.80678,9.187 22.69583,11.27632 3.19229,1.13256 9.04903,3.21043 13.01498,4.61749 3.96595,1.40705 9.81595,4.27898 13,6.38205 3.18405,2.10308 7.00875,4.12273 8.49933,4.48811 1.49058,0.36538 3.51558,1.77112 4.5,3.12386 1.92383,2.64363 4.21765,3.30619 4.40501,1.27238 z m 5.84967,-8.68426 c 1.84857,-3.45409 1.12719,-4.72505 -4.71482,-8.30686 -6.94386,-4.25735 -29.48484,-15.75888 -30.88465,-15.75888 -0.54962,0 -3.63903,-1.35 -6.86535,-3 -5.92879,-3.03209 -9.13294,-3.83313 -8,-2 0.98043,1.58637 0.1966,1.28553 -10.18703,-3.90986 -13.39878,-6.704 -17.32093,-8.22239 -19.47403,-7.53902 -1.01142,0.32101 -1.83894,0.10333 -1.83894,-0.48373 0,-1.74231 -2.20789,-1.22071 -4.68555,1.10692 -3.43104,3.2233 -2.85984,4.51682 2.33879,5.2964 2.55928,0.38379 7.84678,1.81936 11.75,3.19016 3.90322,1.3708 10.02176,3.30137 13.59676,4.29016 8.66655,2.39701 14.6204,4.90726 26,10.96205 5.225,2.78009 13.1361,6.86413 17.58022,9.07564 4.44412,2.21151 9.13506,5.14376 10.42431,6.5161 2.82056,3.00235 3.60613,3.09118 4.96029,0.56092 z m 12.27016,-11.23276 c 2.89576,-1.74187 5.94002,-3.71356 6.76502,-4.38155 0.825,-0.66798 4.23762,-2.62446 7.5836,-4.34772 25.11329,-12.93393 21.10095,-25.30817 -14.36678,-44.3079 -38.21942,-20.47377 -57.469,-27.81596 -87.21682,-33.2663 -5.225,-0.95731 -11.525,-2.57986 -14,-3.60565 -12.65827,-5.24637 -14.91877,-1.74073 -9.46836,14.68377 1.29725,3.9092 3.0756,10.2092 3.95187,14 2.59762,11.23736 7.81025,25.49362 9.1355,24.98508 0.65262,-0.25044 2.01783,0.17444 3.03379,0.94417 1.01596,0.76973 3.55705,1.41382 5.64686,1.43132 2.08981,0.0175 5.16889,0.73985 6.84238,1.60525 1.6735,0.8654 6.26365,2.60475 10.20034,3.86522 3.93669,1.26048 9.85762,3.66952 13.15762,5.35342 3.3,1.68391 7.2909,3.38175 8.86866,3.77297 1.57777,0.39123 5.97716,2.22414 9.77644,4.07313 3.79927,1.849 7.11295,3.36181 7.36372,3.36181 0.25077,0 3.30244,1.74224 6.78147,3.87164 3.47903,2.12941 7.28905,4.17746 8.4667,4.55123 1.17765,0.37377 3.56168,2.00653 5.29785,3.62836 3.99002,3.72724 5.67103,3.69711 12.18014,-0.21825 z"
         id="path4740"
         inkscape:connector-curvature="0"
         inkscape:export-filename="/home/lazka/rect4754.png"
         inkscape:export-xdpi="90"
         inkscape:export-ydpi="90" />
      <rect
         inkscape:export-ydpi="90"
         inkscape:export-xdpi="90"
         inkscape:export-filename="/home/lazka/rect4754.png"
         ry="38.201962"
         y="99.248695"
         x="159.67648"
         height="262.83072"
         width="262.83069"
         id="rect4754"
         style="opacity:1;fill:none;fill-opacity:1;stroke:#000000;stroke-width:7.1689992;stroke-linecap:butt;stroke-linejoin:bevel;stroke-miterlimit:4;stroke-dasharray:none;stroke-opacity:1" />
    </g>
  </g>
</svg>
