<?xml version="1.0" encoding="UTF-8" standalone="no"?>
<!-- Created with Inkscape (http://www.inkscape.org/) -->

<svg
   xmlns:dc="http://purl.org/dc/elements/1.1/"
   xmlns:cc="http://creativecommons.org/ns#"
   xmlns:rdf="http://www.w3.org/1999/02/22-rdf-syntax-ns#"
   xmlns:svg="http://www.w3.org/2000/svg"
   xmlns="http://www.w3.org/2000/svg"
   xmlns:sodipodi="http://sodipodi.sourceforge.net/DTD/sodipodi-0.dtd"
   xmlns:inkscape="http://www.inkscape.org/namespaces/inkscape"
   width="76.199997mm"
   height="76.200005mm"
   viewBox="0 0 269.99998 270"
   id="svg4170"
   version="1.1"
   inkscape:version="0.91 r13725"
   sodipodi:docname="icon.svg"
   inkscape:export-filename="/home/lazka/rect4754.png"
   inkscape:export-xdpi="90"
   inkscape:export-ydpi="90">
  <defs
     id="defs4172">
    <inkscape:path-effect
       effect="powerstroke"
       id="path-effect4136"
       is_visible="true"
       offset_points="0,0.39999995 | 33.5,0.39999995"
       sort_points="true"
       interpolator_type=""
       interpolator_beta="0.75384615"
       start_linecap_type="round"
       linejoin_type="round"
       miter_limit="4"
       end_linecap_type="round" />
  </defs>
  <sodipodi:namedview
     id="base"
     pagecolor="#ffffff"
     bordercolor="#666666"
     borderopacity="1.0"
     inkscape:pageopacity="0.0"
     inkscape:pageshadow="2"
     inkscape:zoom="0.7"
     inkscape:cx="-137.97068"
     inkscape:cy="-40.491221"
     inkscape:document-units="px"
     inkscape:current-layer="g4792"
     showgrid="false"
     inkscape:window-width="1366"
     inkscape:window-height="674"
     inkscape:window-x="0"
     inkscape:window-y="26"
     inkscape:window-maximized="1"
     fit-margin-top="0"
     fit-margin-left="0"
     fit-margin-right="0"
     fit-margin-bottom="0"
     showborder="true"
     borderlayer="false"
     inkscape:showpageshadow="false" />
  <metadata
     id="metadata4175">
    <rdf:RDF>
      <cc:Work
         rdf:about="">
        <dc:format>image/svg+xml</dc:format>
        <dc:type
           rdf:resource="http://purl.org/dc/dcmitype/StillImage" />
        <dc:title />
      </cc:Work>
    </rdf:RDF>
  </metadata>
  <g
     inkscape:label="Layer 1"
     inkscape:groupmode="layer"
     id="layer1"
     transform="translate(-130.37755,-101.37834)">
    <g
       id="g4792"
       transform="translate(-25.714286,5.7142884)">
      <path
         style="fill:#000000;stroke-width:0.39999995;stroke-miterlimit:4;stroke-dasharray:none"
         d="m 240.98637,98.982411 c -6.35918,0.913264 -5.35599,9.274839 -8.04687,13.746089 -1.42835,6.62926 -7.6459,12.39253 -6.36133,19.28516 10.36993,15.91775 7.74066,35.83234 12.0664,53.40625 0.408,3.71645 2.87679,5.8184 5.42969,8.06836 4.36657,12.37548 -0.89058,25.76287 -6.36242,36.96918 -5.0703,9.33015 -5.75704,20.39568 -11.42273,29.43902 -1.56924,6.02022 -3.76477,12.07399 -4.8125,18.09766 1.54149,7.1283 7.83013,13.68286 4.65039,21.41797 -3.10769,11.11351 -9.135,21.89501 -7.45508,33.81836 1.46933,6.97735 0.0555,14.88814 -6.16016,19.16797 -2.49269,2.69055 -7.64176,5.72444 -6.80859,9.65624 6.18857,2.17927 9.49641,-5.94866 11.98684,-10.22324 6.51036,-12.70238 6.59567,-27.39329 9.51902,-40.98574 3.64718,-8.67685 5.02246,-21.24134 15.58593,-24.44336 8.25511,-2.2363 16.79595,0.87875 24.86915,2.46484 9.08171,2.99093 15.36482,11.1412 23.60546,15.2129 4.11811,0.13998 6.47323,4.73333 4.55274,8.13086 2.27652,2.63312 5.66331,5.34102 4.41015,9.36718 -0.56075,11.52083 -10.89672,18.73638 -15.71093,28.4336 -2.09483,2.90651 -4.60956,5.47822 -7.20313,7.9375 4.62529,0.0951 10.12339,1.17038 12.16602,-4.08789 2.54478,-5.6362 4.67922,-11.3102 8.70655,-16.19232 3.9545,-5.22689 6.04386,-11.8534 7.87548,-17.71979 6.55735,-4.25898 13.44732,-8.31111 17.54571,-15.25495 6.61825,-7.95288 10.88909,-17.60338 18.50312,-24.67279 7.1354,-9.44934 13.1052,-20.37875 23.68554,-26.61328 10.39814,-6.42343 20.92522,-12.60026 30.54493,-20.18555 6.1692,-4.66243 13.66881,-6.92678 21.02929,-8.50586 5.55601,-3.25799 7.29952,-12.37383 4.32227,-17.19726 -3.14686,2.79838 -2.51788,10.32596 -7.82617,10.22265 -5.06771,-2.48032 -7.70904,-8.11862 -12.08874,-11.63579 -11.76363,-13.08244 -26.81188,-22.8087 -42.87806,-29.98139 -15.44246,-9.5682 -32.08732,-17.06763 -49.37978,-22.67484 -17.02101,-6.28799 -33.44055,-15.46302 -51.64756,-17.74508 -8.22172,-0.45711 -17.23092,0.0832 -24.76563,-4.15039 2.64622,-5.04309 1.93667,-11.50098 5.96484,-15.87305 2.77981,-4.67133 8.31652,-11.97835 2.73243,-16.595703 -0.26381,-0.08724 -0.5452,-0.120318 -0.82227,-0.103516 z m 2.00391,41.578129 c 13.00093,3.77978 25.95345,7.21415 39.26758,9.50586 36.16254,8.50645 69.78802,25.74049 101.14453,45.09179 7.59846,5.0459 17.22716,12.29599 15.92968,22.57031 -5.29318,13.0858 -20.75288,15.96815 -30.86718,23.99805 -4.38076,3.30103 -11.90407,7.91616 -16.23243,1.95898 -8.35886,-6.06902 -17.95195,-10.26117 -26.89843,-15.34375 -18.94548,-7.85302 -37.60557,-16.68064 -57.27149,-22.68359 -6.11422,-0.26793 -13.72512,-2.42246 -14.99023,-9.21289 -5.97337,-15.87645 -9.62389,-32.55013 -14.10938,-48.84961 -0.6727,-2.98058 0.15473,-7.19661 4.02735,-7.03515 z m 16.9082,70.02148 c 2.51781,1.56705 6.39489,-0.72452 8.80859,1.78515 8.75793,4.06108 18.79123,7.90054 25.77539,13.69336 2.86569,-4.69275 8.07712,-0.72812 11.86064,0.94209 15.23383,6.86731 30.78853,13.65676 44.58272,23.08135 3.49774,2.24548 1.22099,9.30918 -3.03125,6.65625 -6.10581,-6.3465 -15.10742,-8.89732 -22.43626,-13.56994 -9.98382,-5.55042 -20.62003,-10.17336 -30.74928,-15.04334 -0.49184,-3.69043 -5.9074,-0.25478 -8.56217,-2.38924 -11.60832,-3.40841 -22.92617,-8.01405 -34.96908,-9.74553 2.18053,-1.73328 5.59974,-8.12969 8.7207,-5.41015 z m -6.32812,9.95312 c 9.60711,-0.4813 19.04816,2.90688 26.67578,8.65821 20.99147,4.42474 38.46018,17.72422 57.73632,26.37109 3.02075,2.10588 8.75057,5.42886 6.72852,9.68164 -3.54827,2.63621 -4.76763,-3.77168 -8.22656,-3.87891 -11.84875,-6.16536 -23.32388,-13.34046 -36.41406,-16.61718 -12.47993,-4.18185 -23.66621,-11.48695 -35.33008,-17.1875 -5.00677,1.30095 -10.48942,0.44915 -14.54297,-2.79883 -1.95278,-2.38099 1.01286,-4.62178 3.37305,-4.22852 z m 40.94531,5.90235 c 3.01248,5.26353 5.25633,-2.09701 0,0 z m -30.30664,9.0625 c 15.39986,4.23979 28.84557,13.13274 42.74804,20.60937 10.34261,4.50284 23.95727,6.06257 30.36133,16.47461 1.68168,2.81005 0.3959,7.2779 -3.47265,6.89258 -1.601,-3.38688 -4.47467,-6.19436 -6.28125,-9.30859 -6.49921,-2.46172 -13.29141,-4.19384 -19.16114,-8.12795 -15.60895,-8.39401 -31.38195,-16.49962 -47.35074,-23.86996 -5.34785,-3.92773 0.095,-2.90038 3.15641,-2.67006 z m -19.67578,4.58984 c 20.07932,2.00212 37.38832,13.52301 54.9082,22.4668 3.44035,3.25902 6.23216,7.81384 11.5625,7.79883 7.80154,2.19639 13.82774,7.94177 20.5,12.22461 1.57121,4.9068 -5.49215,8.7388 -8.41406,4.30859 -14.00891,-14.42609 -34.42316,-18.77834 -51.82425,-27.77729 -11.05892,-5.01817 -22.13546,-9.83954 -33.78318,-13.39068 1.19463,-2.91097 3.59181,-5.84065 7.05079,-5.63086 z m -6.74414,11.83789 c 12.4943,2.55239 23.7944,8.99178 35.48055,13.84973 15.95305,8.1536 35.46524,12.14444 47.1852,26.69103 5.48076,7.31366 -5.25173,1.06157 -8.0388,-1.18724 -12.99009,-8.88812 -27.44676,-14.88803 -42.22784,-19.9269 -9.07253,-4.33579 -18.42053,-8.34575 -28.00654,-10.80943 -3.6389,-1.7702 -7.35959,-4.6263 -7.36328,-9.11328 0.99024,0.16536 1.98047,0.33073 2.97071,0.49609 z m -3.91211,9.40235 c 17.25997,5.40929 33.1818,14.32906 50.13672,20.49414 3.9466,2.96275 9.24607,2.97452 13.375,6.02929 7.8102,4.11722 14.757,9.74619 20.53124,16.41602 -8.90431,1.47604 -16.14311,-4.14588 -23.0957,-8.65039 -16.46748,-6.96831 -32.17386,-16.14997 -49.36322,-21.88387 -4.84414,-2.64827 -12.85811,-2.42074 -15.42779,-8.14543 -0.48566,-2.1237 1.88559,-4.72155 3.84375,-4.25976 z"
         id="path4740"
         inkscape:connector-curvature="0" />
      <rect
         inkscape:export-ydpi="90"
         inkscape:export-xdpi="90"
         inkscape:export-filename="/home/lazka/rect4754.png"
         ry="37.125225"
         y="102.95266"
         x="163.38045"
         height="255.42274"
         width="255.42274"
         id="rect4754"
         style="opacity:1;fill:none;fill-opacity:1;stroke:#000000;stroke-width:14.57721901;stroke-linecap:butt;stroke-linejoin:bevel;stroke-miterlimit:4;stroke-dasharray:none;stroke-opacity:1" />
      <rect
         style="opacity:1;fill:#000000;fill-opacity:0;stroke:none;stroke-width:0.40000001;stroke-linecap:butt;stroke-linejoin:bevel;stroke-miterlimit:4;stroke-dasharray:none;stroke-opacity:1"
         id="rect4142"
         width="87.85714"
         height="65"
         x="236.80612"
         y="362.80695"
         ry="32.5" />
      <rect
         style="opacity:1;fill:#000000;fill-opacity:0;stroke:none;stroke-width:0.40000001;stroke-linecap:butt;stroke-linejoin:bevel;stroke-miterlimit:4;stroke-dasharray:none;stroke-opacity:1"
         id="rect4144"
         width="155.71428"
         height="56.42857"
         x="153.2347"
         y="375.66409"
         ry="28.214285"
         rx="0" />
    </g>
  </g>
</svg>
